<?xml version="1.0" encoding="utf-8"?>
<!-- Generator: Adobe Illustrator 24.2.1, SVG Export Plug-In . SVG Version: 6.00 Build 0)  -->
<svg version="1.1" id="Layer_1" xmlns="http://www.w3.org/2000/svg" xmlns:xlink="http://www.w3.org/1999/xlink" x="0px" y="0px"
	 viewBox="0 0 360 360" style="enable-background:new 0 0 360 360;" xml:space="preserve">
<style type="text/css">
	.st0{fill:#00884A;}
	.st1{fill:#049949;}
	.st2{fill:#9EAD38;}
	.st3{fill:#66A844;}
</style>
<g>
	<rect x="-17.5" y="-19.5" class="st0" width="397" height="397"/>
	<path class="st0" d="M379-19v396H-17V-19H379 M380-20H-18v398h398V-20L380-20z"/>
</g>
<g id="Grass_Pattern">
	<g>
		<polygon class="st1" points="23.81,178.79 62.41,154 60.66,199.83 		"/>
		<path class="st1" d="M61.87,154.94l-1.68,44.06l-35.41-20.23L61.87,154.94 M62.94,153.06l-40.1,25.75l38.28,21.87L62.94,153.06
			L62.94,153.06z"/>
	</g>
	<g>
		<polygon class="st1" points="8.94,143.12 33.94,144.23 17.91,163.45 		"/>
		<path class="st1" d="M9.72,143.66l23.19,1.03l-14.87,17.82L9.72,143.66 M8.15,142.59l9.62,21.8l17.19-20.61L8.15,142.59
			L8.15,142.59z"/>
	</g>
	<g>
		<polygon class="st1" points="75.02,185.73 95.81,188.63 82.12,204.54 		"/>
		<path class="st1" d="M75.79,186.35L94.83,189l-12.54,14.58L75.79,186.35 M74.26,185.12l7.7,20.38l14.84-17.25L74.26,185.12
			L74.26,185.12z"/>
	</g>
	<g>
		<polygon class="st2" points="48.72,213 77.33,216.51 58.18,238.05 		"/>
		<path class="st2" d="M49.48,213.6l26.84,3.29L58.35,237.1L49.48,213.6 M47.96,212.4L58,239l20.33-22.87L47.96,212.4L47.96,212.4z"
			/>
	</g>
	<g>
		<polygon class="st2" points="96.07,219.61 105.47,214.07 106.05,225.8 		"/>
		<path class="st2" d="M105.01,214.92l0.49,9.95l-8.47-5.25L105.01,214.92 M105.93,213.22l-10.82,6.38l11.49,7.13L105.93,213.22
			L105.93,213.22z"/>
	</g>
	<g>
		<polygon class="st1" points="106.98,188.28 133.72,180.83 124.54,207.03 		"/>
		<path class="st1" d="M132.93,181.57l-8.6,24.52l-16.43-17.54L132.93,181.57 M134.51,180.09l-28.46,7.93l18.68,19.95L134.51,180.09
			L134.51,180.09z"/>
	</g>
	<g>
		<polygon class="st2" points="132.81,146.47 137.99,137.03 143.13,146.5 		"/>
		<path class="st2" d="M137.99,138.07l4.3,7.92l-8.64-0.02L137.99,138.07 M138,135.99l-6.03,10.99l12.01,0.03L138,135.99L138,135.99
			z"/>
	</g>
	<g>
		<polygon class="st2" points="3.62,132.48 7.42,125.16 11.18,132.5 		"/>
		<path class="st2" d="M7.41,126.25l2.95,5.74l-5.92-0.01L7.41,126.25 M7.42,124.07l-4.62,8.9L12,133L7.42,124.07L7.42,124.07z"/>
	</g>
	<g>
		<polygon class="st3" points="81.38,143.77 99.27,132.79 98.81,153.78 		"/>
		<path class="st3" d="M98.75,133.7l-0.41,19.23l-15.97-9.16L98.75,133.7 M99.79,131.89l-19.39,11.9l18.9,10.84L99.79,131.89
			L99.79,131.89z"/>
	</g>
	<g>
		<polygon class="st3" points="79.29,165.61 91.66,162.37 88.5,175.53 		"/>
		<path class="st3" d="M90.98,163.07l-2.75,11.44l-8-8.63L90.98,163.07 M92.35,161.68l-13.99,3.66l10.41,11.22L92.35,161.68
			L92.35,161.68z"/>
	</g>
	<g>
		<polygon class="st3" points="35.67,137.25 53.53,120.83 57.35,142.91 		"/>
		<path class="st3" d="M53.2,121.82l3.52,20.4L36.69,137L53.2,121.82 M53.87,119.84L34.66,137.5l23.31,6.09L53.87,119.84
			L53.87,119.84z"/>
	</g>
	<g>
		<polygon class="st1" points="102.59,165.33 114.08,162.12 110.13,173.38 		"/>
		<path class="st1" d="M113.29,162.86l-3.36,9.57l-6.41-6.85L113.29,162.86 M114.87,161.39l-13.21,3.68l8.67,9.26L114.87,161.39
			L114.87,161.39z"/>
	</g>
</g>
<g id="Grass_Pattern_1_">
	<g>
		<polygon class="st1" points="42.2,66.79 80.79,42 79.04,87.83 		"/>
		<path class="st1" d="M80.26,42.94l-1.68,44.06L43.16,66.76L80.26,42.94 M81.33,41.06l-40.1,25.75l38.28,21.87L81.33,41.06
			L81.33,41.06z"/>
	</g>
	<g>
		<polygon class="st1" points="27.33,31.12 52.32,32.23 36.29,51.45 		"/>
		<path class="st1" d="M28.11,31.66l23.19,1.03L36.43,50.51L28.11,31.66 M26.54,30.59l9.62,21.8l17.19-20.61L26.54,30.59
			L26.54,30.59z"/>
	</g>
	<g>
		<polygon class="st1" points="93.41,73.73 114.2,76.63 100.51,92.54 		"/>
		<path class="st1" d="M94.18,74.35L113.22,77l-12.54,14.58L94.18,74.35 M92.65,73.12l7.7,20.38l14.84-17.25L92.65,73.12
			L92.65,73.12z"/>
	</g>
	<g>
		<polygon class="st2" points="67.1,101 95.71,104.51 76.56,126.05 		"/>
		<path class="st2" d="M67.86,101.6l26.84,3.29L76.74,125.1L67.86,101.6 M66.34,100.4L76.39,127l20.33-22.87L66.34,100.4
			L66.34,100.4z"/>
	</g>
	<g>
		<polygon class="st2" points="114.46,107.61 123.86,102.07 124.44,113.8 		"/>
		<path class="st2" d="M123.4,102.92l0.49,9.95l-8.47-5.25L123.4,102.92 M124.32,101.22l-10.82,6.38l11.49,7.13L124.32,101.22
			L124.32,101.22z"/>
	</g>
	<g>
		<polygon class="st1" points="125.37,76.28 152.11,68.83 142.92,95.03 		"/>
		<path class="st1" d="M151.32,69.57l-8.6,24.52l-16.43-17.54L151.32,69.57 M152.9,68.09l-28.46,7.93l18.68,19.95L152.9,68.09
			L152.9,68.09z"/>
	</g>
	<g>
		<polygon class="st2" points="151.2,34.47 156.38,25.03 161.52,34.5 		"/>
		<path class="st2" d="M156.38,26.07l4.3,7.92l-8.64-0.02L156.38,26.07 M156.38,23.99l-6.03,10.99L162.36,35L156.38,23.99
			L156.38,23.99z"/>
	</g>
	<g>
		<polygon class="st2" points="22.01,20.48 25.8,13.16 29.57,20.5 		"/>
		<path class="st2" d="M25.8,14.25L28.75,20l-5.92-0.01L25.8,14.25 M25.81,12.07l-4.62,8.9l9.2,0.02L25.81,12.07L25.81,12.07z"/>
	</g>
	<g>
		<polygon class="st3" points="99.77,31.77 117.65,20.79 117.2,41.78 		"/>
		<path class="st3" d="M117.13,21.7l-0.41,19.23l-15.97-9.16L117.13,21.7 M118.17,19.89l-19.39,11.9l18.9,10.84L118.17,19.89
			L118.17,19.89z"/>
	</g>
	<g>
		<polygon class="st3" points="97.68,53.61 110.05,50.37 106.89,63.53 		"/>
		<path class="st3" d="M109.37,51.07l-2.75,11.44l-8-8.63L109.37,51.07 M110.73,49.68l-13.99,3.66l10.41,11.22L110.73,49.68
			L110.73,49.68z"/>
	</g>
	<g>
		<polygon class="st3" points="54.06,25.25 71.92,8.83 75.73,30.91 		"/>
		<path class="st3" d="M71.59,9.82l3.52,20.4L55.07,25L71.59,9.82 M72.26,7.84L53.05,25.5l23.31,6.09L72.26,7.84L72.26,7.84z"/>
	</g>
	<g>
		<polygon class="st1" points="120.98,53.33 132.47,50.12 128.52,61.38 		"/>
		<path class="st1" d="M131.68,50.86l-3.36,9.57l-6.41-6.85L131.68,50.86 M133.26,49.39l-13.21,3.68l8.67,9.26L133.26,49.39
			L133.26,49.39z"/>
	</g>
</g>
<g id="Grass_Pattern_2_">
	<g>
		<polygon class="st1" points="6.93,290.79 45.53,266 43.78,311.84 		"/>
		<path class="st1" d="M44.99,266.94l-1.68,44.06L7.89,290.76L44.99,266.94 M46.06,265.06l-40.1,25.75l38.28,21.87L46.06,265.06
			L46.06,265.06z"/>
	</g>
	<g>
		<polygon class="st1" points="-7.94,255.12 17.06,256.23 1.02,275.45 		"/>
		<path class="st1" d="M-7.16,255.66l23.19,1.03L1.16,274.51L-7.16,255.66 M-8.73,254.59l9.62,21.8l17.19-20.61L-8.73,254.59
			L-8.73,254.59z"/>
	</g>
	<g>
		<polygon class="st1" points="58.14,297.73 78.93,300.63 65.24,316.54 		"/>
		<path class="st1" d="M58.91,298.35L77.95,301l-12.54,14.58L58.91,298.35 M57.38,297.12l7.7,20.38l14.84-17.25L57.38,297.12
			L57.38,297.12z"/>
	</g>
	<g>
		<polygon class="st2" points="31.83,325 60.44,328.51 41.29,350.05 		"/>
		<path class="st2" d="M32.6,325.6l26.84,3.29L41.47,349.1L32.6,325.6 M31.08,324.4L41.12,351l20.33-22.87L31.08,324.4L31.08,324.4z
			"/>
	</g>
	<g>
		<polygon class="st2" points="79.19,331.61 88.59,326.07 89.17,337.8 		"/>
		<path class="st2" d="M88.13,326.92l0.49,9.95l-8.47-5.25L88.13,326.92 M89.05,325.22l-10.82,6.38l11.49,7.13L89.05,325.22
			L89.05,325.22z"/>
	</g>
	<g>
		<polygon class="st1" points="90.1,300.28 116.84,292.83 107.65,319.03 		"/>
		<path class="st1" d="M116.05,293.57l-8.6,24.52l-16.43-17.54L116.05,293.57 M117.63,292.09l-28.46,7.93l18.68,19.95L117.63,292.09
			L117.63,292.09z"/>
	</g>
	<g>
		<polygon class="st2" points="115.93,258.47 121.11,249.03 126.25,258.5 		"/>
		<path class="st2" d="M121.11,250.07l4.3,7.92l-8.64-0.02L121.11,250.07 M121.12,247.99l-6.03,10.99l12.01,0.03L121.12,247.99
			L121.12,247.99z"/>
	</g>
	<g>
		<polygon class="st2" points="-13.26,244.48 -9.46,237.16 -5.7,244.5 		"/>
		<path class="st2" d="M-9.47,238.25l2.95,5.74l-5.92-0.01L-9.47,238.25 M-9.46,236.07l-4.62,8.9l9.2,0.02L-9.46,236.07
			L-9.46,236.07z"/>
	</g>
	<g>
		<polygon class="st3" points="64.5,255.77 82.39,244.79 81.93,265.78 		"/>
		<path class="st3" d="M81.87,245.7l-0.41,19.23l-15.97-9.16L81.87,245.7 M82.9,243.89l-19.39,11.9l18.9,10.84L82.9,243.89
			L82.9,243.89z"/>
	</g>
	<g>
		<polygon class="st3" points="62.41,277.61 74.78,274.37 71.62,287.53 		"/>
		<path class="st3" d="M74.1,275.07l-2.75,11.44l-8-8.63L74.1,275.07 M75.46,273.68l-13.99,3.66l10.41,11.22L75.46,273.68
			L75.46,273.68z"/>
	</g>
	<g>
		<polygon class="st3" points="18.79,249.25 36.65,232.83 40.47,254.91 		"/>
		<path class="st3" d="M36.32,233.82l3.52,20.4L19.81,249L36.32,233.82 M36.99,231.84L17.78,249.5l23.31,6.09L36.99,231.84
			L36.99,231.84z"/>
	</g>
	<g>
		<polygon class="st1" points="85.71,277.33 97.2,274.12 93.25,285.38 		"/>
		<path class="st1" d="M96.41,274.86l-3.36,9.57l-6.41-6.85L96.41,274.86 M97.99,273.39l-13.21,3.68l8.67,9.26L97.99,273.39
			L97.99,273.39z"/>
	</g>
</g>
<g id="Grass_Pattern_3_">
	<g>
		<polygon class="st1" points="166.93,159.79 205.53,135 203.78,180.84 		"/>
		<path class="st1" d="M204.99,135.94l-1.68,44.06l-35.41-20.23L204.99,135.94 M206.06,134.06l-40.1,25.75l38.28,21.87
			L206.06,134.06L206.06,134.06z"/>
	</g>
	<g>
		<polygon class="st1" points="152.06,124.12 177.06,125.23 161.02,144.45 		"/>
		<path class="st1" d="M152.84,124.66l23.19,1.03l-14.87,17.82L152.84,124.66 M151.27,123.59l9.62,21.8l17.19-20.61L151.27,123.59
			L151.27,123.59z"/>
	</g>
	<g>
		<polygon class="st1" points="218.14,166.73 238.93,169.63 225.24,185.54 		"/>
		<path class="st1" d="M218.91,167.35l19.05,2.65l-12.54,14.58L218.91,167.35 M217.38,166.12l7.7,20.38l14.84-17.25L217.38,166.12
			L217.38,166.12z"/>
	</g>
	<g>
		<polygon class="st2" points="191.83,194 220.44,197.51 201.29,219.05 		"/>
		<path class="st2" d="M192.6,194.6l26.84,3.29l-17.97,20.21L192.6,194.6 M191.08,193.4l10.04,26.6l20.33-22.87L191.08,193.4
			L191.08,193.4z"/>
	</g>
	<g>
		<polygon class="st2" points="239.19,200.61 248.59,195.07 249.17,206.8 		"/>
		<path class="st2" d="M248.13,195.92l0.49,9.95l-8.47-5.25L248.13,195.92 M249.05,194.22l-10.82,6.38l11.49,7.13L249.05,194.22
			L249.05,194.22z"/>
	</g>
	<g>
		<polygon class="st1" points="250.1,169.28 276.84,161.83 267.65,188.03 		"/>
		<path class="st1" d="M276.05,162.57l-8.6,24.52l-16.43-17.54L276.05,162.57 M277.63,161.09l-28.46,7.93l18.68,19.95L277.63,161.09
			L277.63,161.09z"/>
	</g>
	<g>
		<polygon class="st2" points="275.93,127.47 281.11,118.03 286.25,127.5 		"/>
		<path class="st2" d="M281.11,119.07l4.3,7.92l-8.64-0.02L281.11,119.07 M281.12,116.99l-6.03,10.99l12.01,0.03L281.12,116.99
			L281.12,116.99z"/>
	</g>
	<g>
		<polygon class="st2" points="146.74,113.48 150.54,106.16 154.3,113.5 		"/>
		<path class="st2" d="M150.53,107.25l2.95,5.74l-5.92-0.01L150.53,107.25 M150.54,105.07l-4.62,8.9l9.2,0.02L150.54,105.07
			L150.54,105.07z"/>
	</g>
	<g>
		<polygon class="st3" points="224.5,124.77 242.39,113.79 241.93,134.78 		"/>
		<path class="st3" d="M241.87,114.7l-0.41,19.23l-15.97-9.16L241.87,114.7 M242.9,112.89l-19.39,11.9l18.9,10.84L242.9,112.89
			L242.9,112.89z"/>
	</g>
	<g>
		<polygon class="st3" points="222.41,146.61 234.78,143.37 231.62,156.53 		"/>
		<path class="st3" d="M234.1,144.07l-2.75,11.44l-8-8.63L234.1,144.07 M235.46,142.68l-13.99,3.66l10.41,11.22L235.46,142.68
			L235.46,142.68z"/>
	</g>
	<g>
		<polygon class="st3" points="178.79,118.25 196.65,101.83 200.47,123.91 		"/>
		<path class="st3" d="M196.32,102.82l3.52,20.4L179.81,118L196.32,102.82 M196.99,100.84l-19.21,17.66l23.31,6.09L196.99,100.84
			L196.99,100.84z"/>
	</g>
	<g>
		<polygon class="st1" points="245.71,146.33 257.2,143.12 253.25,154.38 		"/>
		<path class="st1" d="M256.41,143.86l-3.36,9.57l-6.41-6.85L256.41,143.86 M257.99,142.39l-13.21,3.68l8.67,9.26L257.99,142.39
			L257.99,142.39z"/>
	</g>
</g>
<g id="Grass_Pattern_4_">
	<g>
		<polygon class="st1" points="150.93,264.79 189.53,240 187.78,285.84 		"/>
		<path class="st1" d="M188.99,240.94l-1.68,44.06l-35.41-20.23L188.99,240.94 M190.06,239.06l-40.1,25.75l38.28,21.87
			L190.06,239.06L190.06,239.06z"/>
	</g>
	<g>
		<polygon class="st1" points="136.06,229.12 161.06,230.23 145.02,249.45 		"/>
		<path class="st1" d="M136.84,229.66l23.19,1.03l-14.87,17.82L136.84,229.66 M135.27,228.59l9.62,21.8l17.19-20.61L135.27,228.59
			L135.27,228.59z"/>
	</g>
	<g>
		<polygon class="st1" points="202.14,271.73 222.93,274.63 209.24,290.54 		"/>
		<path class="st1" d="M202.91,272.35l19.05,2.65l-12.54,14.58L202.91,272.35 M201.38,271.12l7.7,20.38l14.84-17.25L201.38,271.12
			L201.38,271.12z"/>
	</g>
	<g>
		<polygon class="st2" points="175.83,299 204.44,302.51 185.29,324.05 		"/>
		<path class="st2" d="M176.6,299.6l26.84,3.29l-17.97,20.21L176.6,299.6 M175.08,298.4l10.04,26.6l20.33-22.87L175.08,298.4
			L175.08,298.4z"/>
	</g>
	<g>
		<polygon class="st2" points="223.19,305.61 232.59,300.07 233.17,311.8 		"/>
		<path class="st2" d="M232.13,300.92l0.49,9.95l-8.47-5.25L232.13,300.92 M233.05,299.22l-10.82,6.38l11.49,7.13L233.05,299.22
			L233.05,299.22z"/>
	</g>
	<g>
		<polygon class="st1" points="234.1,274.28 260.84,266.83 251.65,293.03 		"/>
		<path class="st1" d="M260.05,267.57l-8.6,24.52l-16.43-17.54L260.05,267.57 M261.63,266.09l-28.46,7.93l18.68,19.95L261.63,266.09
			L261.63,266.09z"/>
	</g>
	<g>
		<polygon class="st2" points="259.93,232.47 265.11,223.03 270.25,232.5 		"/>
		<path class="st2" d="M265.11,224.07l4.3,7.92l-8.64-0.02L265.11,224.07 M265.12,221.99l-6.03,10.99l12.01,0.03L265.12,221.99
			L265.12,221.99z"/>
	</g>
	<g>
		<polygon class="st2" points="130.74,218.48 134.54,211.16 138.3,218.5 		"/>
		<path class="st2" d="M134.53,212.25l2.95,5.74l-5.92-0.01L134.53,212.25 M134.54,210.07l-4.62,8.9l9.2,0.02L134.54,210.07
			L134.54,210.07z"/>
	</g>
	<g>
		<polygon class="st3" points="208.5,229.77 226.39,218.79 225.93,239.78 		"/>
		<path class="st3" d="M225.87,219.7l-0.41,19.23l-15.97-9.16L225.87,219.7 M226.9,217.89l-19.39,11.9l18.9,10.84L226.9,217.89
			L226.9,217.89z"/>
	</g>
	<g>
		<polygon class="st3" points="206.41,251.61 218.78,248.37 215.62,261.53 		"/>
		<path class="st3" d="M218.1,249.07l-2.75,11.44l-8-8.63L218.1,249.07 M219.46,247.68l-13.99,3.66l10.41,11.22L219.46,247.68
			L219.46,247.68z"/>
	</g>
	<g>
		<polygon class="st3" points="162.79,223.25 180.65,206.83 184.47,228.91 		"/>
		<path class="st3" d="M180.32,207.82l3.52,20.4L163.81,223L180.32,207.82 M180.99,205.84l-19.21,17.66l23.31,6.09L180.99,205.84
			L180.99,205.84z"/>
	</g>
	<g>
		<polygon class="st1" points="229.71,251.33 241.2,248.12 237.25,259.38 		"/>
		<path class="st1" d="M240.41,248.86l-3.36,9.57l-6.41-6.85L240.41,248.86 M241.99,247.39l-13.21,3.68l8.67,9.26L241.99,247.39
			L241.99,247.39z"/>
	</g>
</g>
<g id="Grass_Pattern_5_">
	<g>
		<polygon class="st1" points="134.93,373.79 173.53,349 171.78,394.84 		"/>
		<path class="st1" d="M172.99,349.94l-1.68,44.06l-35.41-20.23L172.99,349.94 M174.06,348.06l-40.1,25.75l38.28,21.87
			L174.06,348.06L174.06,348.06z"/>
	</g>
	<g>
		<polygon class="st1" points="120.06,338.12 145.06,339.23 129.02,358.45 		"/>
		<path class="st1" d="M120.84,338.66l23.19,1.03l-14.87,17.82L120.84,338.66 M119.27,337.59l9.62,21.8l17.19-20.61L119.27,337.59
			L119.27,337.59z"/>
	</g>
	<g>
		<polygon class="st1" points="186.14,380.73 206.93,383.63 193.24,399.54 		"/>
		<path class="st1" d="M186.91,381.35l19.05,2.65l-12.54,14.58L186.91,381.35 M185.38,380.12l7.7,20.38l14.84-17.25L185.38,380.12
			L185.38,380.12z"/>
	</g>
	<g>
		<polygon class="st2" points="159.83,408 188.44,411.51 169.29,433.05 		"/>
		<path class="st2" d="M160.6,408.6l26.84,3.29l-17.97,20.21L160.6,408.6 M159.08,407.4l10.04,26.6l20.33-22.87L159.08,407.4
			L159.08,407.4z"/>
	</g>
	<g>
		<polygon class="st2" points="207.19,414.61 216.59,409.07 217.17,420.8 		"/>
		<path class="st2" d="M216.13,409.92l0.49,9.95l-8.47-5.25L216.13,409.92 M217.05,408.22l-10.82,6.38l11.49,7.13L217.05,408.22
			L217.05,408.22z"/>
	</g>
	<g>
		<polygon class="st1" points="218.1,383.28 244.84,375.83 235.65,402.03 		"/>
		<path class="st1" d="M244.05,376.57l-8.6,24.52l-16.43-17.54L244.05,376.57 M245.63,375.09l-28.46,7.93l18.68,19.95L245.63,375.09
			L245.63,375.09z"/>
	</g>
	<g>
		<polygon class="st2" points="243.93,341.47 249.11,332.03 254.25,341.5 		"/>
		<path class="st2" d="M249.11,333.07l4.3,7.92l-8.64-0.02L249.11,333.07 M249.12,330.99l-6.03,10.99l12.01,0.03L249.12,330.99
			L249.12,330.99z"/>
	</g>
	<g>
		<polygon class="st2" points="114.74,327.48 118.54,320.16 122.3,327.5 		"/>
		<path class="st2" d="M118.53,321.25l2.95,5.74l-5.92-0.01L118.53,321.25 M118.54,319.07l-4.62,8.9l9.2,0.02L118.54,319.07
			L118.54,319.07z"/>
	</g>
	<g>
		<polygon class="st3" points="192.5,338.77 210.39,327.79 209.93,348.78 		"/>
		<path class="st3" d="M209.87,328.7l-0.41,19.23l-15.97-9.16L209.87,328.7 M210.9,326.89l-19.39,11.9l18.9,10.84L210.9,326.89
			L210.9,326.89z"/>
	</g>
	<g>
		<polygon class="st3" points="190.41,360.61 202.78,357.37 199.62,370.53 		"/>
		<path class="st3" d="M202.1,358.07l-2.75,11.44l-8-8.63L202.1,358.07 M203.46,356.68l-13.99,3.66l10.41,11.22L203.46,356.68
			L203.46,356.68z"/>
	</g>
	<g>
		<polygon class="st3" points="146.79,332.25 164.65,315.83 168.47,337.91 		"/>
		<path class="st3" d="M164.32,316.82l3.52,20.4L147.81,332L164.32,316.82 M164.99,314.84l-19.21,17.66l23.31,6.09L164.99,314.84
			L164.99,314.84z"/>
	</g>
	<g>
		<polygon class="st1" points="213.71,360.33 225.2,357.12 221.25,368.38 		"/>
		<path class="st1" d="M224.41,357.86l-3.36,9.57l-6.41-6.85L224.41,357.86 M225.99,356.39l-13.21,3.68l8.67,9.26L225.99,356.39
			L225.99,356.39z"/>
	</g>
</g>
<g id="Grass_Pattern_10_">
	<g>
		<polygon class="st1" points="-57.07,78.79 -18.47,54 -20.22,99.84 		"/>
		<path class="st1" d="M-19.01,54.94l-1.68,44.06l-35.41-20.23L-19.01,54.94 M-17.94,53.06l-40.1,25.75l38.28,21.87L-17.94,53.06
			L-17.94,53.06z"/>
	</g>
	<g>
		<polygon class="st1" points="-71.94,43.12 -46.94,44.23 -62.98,63.45 		"/>
		<path class="st1" d="M-71.16,43.66l23.19,1.03l-14.87,17.82L-71.16,43.66 M-72.73,42.59l9.62,21.8l17.19-20.61L-72.73,42.59
			L-72.73,42.59z"/>
	</g>
	<g>
		<polygon class="st1" points="-5.86,85.73 14.93,88.63 1.24,104.54 		"/>
		<path class="st1" d="M-5.09,86.35L13.95,89L1.41,103.58L-5.09,86.35 M-6.62,85.12l7.7,20.38l14.84-17.25L-6.62,85.12L-6.62,85.12z
			"/>
	</g>
	<g>
		<polygon class="st2" points="-32.17,113 -3.56,116.51 -22.71,138.05 		"/>
		<path class="st2" d="M-31.4,113.6l26.84,3.29l-17.97,20.21L-31.4,113.6 M-32.92,112.4l10.04,26.6l20.33-22.87L-32.92,112.4
			L-32.92,112.4z"/>
	</g>
	<g>
		<polygon class="st2" points="15.19,119.61 24.59,114.07 25.17,125.8 		"/>
		<path class="st2" d="M24.13,114.92l0.49,9.95l-8.47-5.25L24.13,114.92 M25.05,113.22l-10.82,6.38l11.49,7.13L25.05,113.22
			L25.05,113.22z"/>
	</g>
	<g>
		<polygon class="st1" points="26.1,88.28 52.84,80.83 43.65,107.03 		"/>
		<path class="st1" d="M52.05,81.57l-8.6,24.52L27.03,88.54L52.05,81.57 M53.63,80.09l-28.46,7.93l18.68,19.95L53.63,80.09
			L53.63,80.09z"/>
	</g>
	<g>
		<polygon class="st2" points="51.93,46.47 57.11,37.03 62.25,46.5 		"/>
		<path class="st2" d="M57.11,38.07l4.3,7.92l-8.64-0.02L57.11,38.07 M57.12,35.99l-6.03,10.99L63.09,47L57.12,35.99L57.12,35.99z"
			/>
	</g>
	<g>
		<polygon class="st2" points="-77.26,32.48 -73.46,25.16 -69.7,32.5 		"/>
		<path class="st2" d="M-73.47,26.25l2.95,5.74l-5.92-0.01L-73.47,26.25 M-73.46,24.07l-4.62,8.9l9.2,0.02L-73.46,24.07
			L-73.46,24.07z"/>
	</g>
	<g>
		<polygon class="st3" points="0.5,43.77 18.39,32.79 17.93,53.78 		"/>
		<path class="st3" d="M17.87,33.7l-0.41,19.23L1.48,43.76L17.87,33.7 M18.9,31.89l-19.39,11.9l18.9,10.84L18.9,31.89L18.9,31.89z"
			/>
	</g>
	<g>
		<polygon class="st3" points="-1.59,65.61 10.78,62.37 7.62,75.53 		"/>
		<path class="st3" d="M10.1,63.07L7.35,74.51l-8-8.63L10.1,63.07 M11.46,61.68l-13.99,3.66L7.89,76.56L11.46,61.68L11.46,61.68z"/>
	</g>
	<g>
		<polygon class="st3" points="-45.21,37.25 -27.35,20.83 -23.53,42.91 		"/>
		<path class="st3" d="M-27.68,21.82l3.52,20.4L-44.19,37L-27.68,21.82 M-27.01,19.84L-46.22,37.5l23.31,6.09L-27.01,19.84
			L-27.01,19.84z"/>
	</g>
	<g>
		<polygon class="st1" points="21.71,65.33 33.2,62.12 29.25,73.38 		"/>
		<path class="st1" d="M32.41,62.86l-3.36,9.57l-6.41-6.85L32.41,62.86 M33.99,61.39l-13.21,3.68l8.67,9.26L33.99,61.39L33.99,61.39
			z"/>
	</g>
</g>
<g id="Grass_Pattern_11_">
	<g>
		<polygon class="st1" points="-75.14,193.79 -36.55,169 -38.3,214.84 		"/>
		<path class="st1" d="M-37.08,169.94l-1.68,44.06l-35.41-20.23L-37.08,169.94 M-36.01,168.06l-40.1,25.75l38.28,21.87
			L-36.01,168.06L-36.01,168.06z"/>
	</g>
	<g>
		<polygon class="st1" points="-90.02,158.12 -65.02,159.23 -81.05,178.45 		"/>
		<path class="st1" d="M-89.23,158.66l23.19,1.03l-14.87,17.82L-89.23,158.66 M-90.8,157.59l9.62,21.8l17.19-20.61L-90.8,157.59
			L-90.8,157.59z"/>
	</g>
	<g>
		<polygon class="st1" points="-23.93,200.73 -3.14,203.63 -16.83,219.54 		"/>
		<path class="st1" d="M-23.17,201.35L-4.12,204l-12.54,14.58L-23.17,201.35 M-24.7,200.12l7.7,20.38l14.84-17.25L-24.7,200.12
			L-24.7,200.12z"/>
	</g>
	<g>
		<polygon class="st2" points="-50.24,228 -21.63,231.51 -40.78,253.05 		"/>
		<path class="st2" d="M-49.48,228.6l26.84,3.29L-40.6,252.1L-49.48,228.6 M-51,227.4l10.04,26.6l20.33-22.87L-51,227.4L-51,227.4z"
			/>
	</g>
	<g>
		<polygon class="st2" points="-2.88,234.61 6.52,229.07 7.1,240.8 		"/>
		<path class="st2" d="M6.06,229.92l0.49,9.95l-8.47-5.25L6.06,229.92 M6.98,228.22l-10.82,6.38l11.49,7.13L6.98,228.22L6.98,228.22
			z"/>
	</g>
	<g>
		<polygon class="st1" points="8.02,203.28 34.77,195.83 25.58,222.03 		"/>
		<path class="st1" d="M33.98,196.57l-8.6,24.52L8.95,203.54L33.98,196.57 M35.56,195.09L7.1,203.02l18.68,19.95L35.56,195.09
			L35.56,195.09z"/>
	</g>
	<g>
		<polygon class="st2" points="33.85,161.47 39.04,152.03 44.18,161.5 		"/>
		<path class="st2" d="M39.04,153.07l4.3,7.92l-8.64-0.02L39.04,153.07 M39.04,150.99l-6.03,10.99L45.02,162L39.04,150.99
			L39.04,150.99z"/>
	</g>
	<g>
		<polygon class="st2" points="-95.34,147.48 -91.54,140.16 -87.77,147.5 		"/>
		<path class="st2" d="M-91.54,141.25l2.95,5.74l-5.92-0.01L-91.54,141.25 M-91.53,139.07l-4.62,8.9l9.2,0.02L-91.53,139.07
			L-91.53,139.07z"/>
	</g>
	<g>
		<polygon class="st3" points="-17.58,158.77 0.31,147.79 -0.14,168.78 		"/>
		<path class="st3" d="M-0.21,148.7l-0.41,19.23l-15.97-9.16L-0.21,148.7 M0.83,146.89l-19.39,11.9l18.9,10.84L0.83,146.89
			L0.83,146.89z"/>
	</g>
	<g>
		<polygon class="st3" points="-19.66,180.61 -7.29,177.37 -10.46,190.53 		"/>
		<path class="st3" d="M-7.97,178.07l-2.75,11.44l-8-8.63L-7.97,178.07 M-6.61,176.68l-13.99,3.66l10.41,11.22L-6.61,176.68
			L-6.61,176.68z"/>
	</g>
	<g>
		<polygon class="st3" points="-63.28,152.25 -45.42,135.83 -41.61,157.91 		"/>
		<path class="st3" d="M-45.76,136.82l3.52,20.4L-62.27,152L-45.76,136.82 M-45.08,134.84l-19.21,17.66l23.31,6.09L-45.08,134.84
			L-45.08,134.84z"/>
	</g>
	<g>
		<polygon class="st1" points="3.64,180.33 15.12,177.12 11.18,188.38 		"/>
		<path class="st1" d="M14.34,177.86l-3.36,9.57l-6.41-6.85L14.34,177.86 M15.91,176.39l-13.21,3.68l8.67,9.26L15.91,176.39
			L15.91,176.39z"/>
	</g>
</g>
<g id="Grass_Pattern_12_">
	<g>
		<polygon class="st1" points="-98.14,344.79 -59.55,320 -61.3,365.84 		"/>
		<path class="st1" d="M-60.08,320.94l-1.68,44.06l-35.41-20.23L-60.08,320.94 M-59.01,319.06l-40.1,25.75l38.28,21.87
			L-59.01,319.06L-59.01,319.06z"/>
	</g>
	<g>
		<polygon class="st1" points="-113.02,309.12 -88.02,310.23 -104.05,329.45 		"/>
		<path class="st1" d="M-112.23,309.66l23.19,1.03l-14.87,17.82L-112.23,309.66 M-113.8,308.59l9.62,21.8l17.19-20.61L-113.8,308.59
			L-113.8,308.59z"/>
	</g>
	<g>
		<polygon class="st1" points="-46.93,351.73 -26.14,354.63 -39.83,370.54 		"/>
		<path class="st1" d="M-46.17,352.35l19.05,2.65l-12.54,14.58L-46.17,352.35 M-47.7,351.12l7.7,20.38l14.84-17.25L-47.7,351.12
			L-47.7,351.12z"/>
	</g>
	<g>
		<polygon class="st2" points="-73.24,379 -44.63,382.51 -63.78,404.05 		"/>
		<path class="st2" d="M-72.48,379.6l26.84,3.29L-63.6,403.1L-72.48,379.6 M-74,378.4l10.04,26.6l20.33-22.87L-74,378.4L-74,378.4z"
			/>
	</g>
	<g>
		<polygon class="st2" points="-25.88,385.61 -16.48,380.07 -15.9,391.8 		"/>
		<path class="st2" d="M-16.94,380.92l0.49,9.95l-8.47-5.25L-16.94,380.92 M-16.02,379.22l-10.82,6.38l11.49,7.13L-16.02,379.22
			L-16.02,379.22z"/>
	</g>
	<g>
		<polygon class="st1" points="-14.98,354.28 11.77,346.83 2.58,373.03 		"/>
		<path class="st1" d="M10.98,347.57l-8.6,24.52l-16.43-17.54L10.98,347.57 M12.56,346.09l-28.46,7.93l18.68,19.95L12.56,346.09
			L12.56,346.09z"/>
	</g>
	<g>
		<polygon class="st2" points="10.85,312.47 16.04,303.03 21.18,312.5 		"/>
		<path class="st2" d="M16.04,304.07l4.3,7.92l-8.64-0.02L16.04,304.07 M16.04,301.99l-6.03,10.99L22.02,313L16.04,301.99
			L16.04,301.99z"/>
	</g>
	<g>
		<polygon class="st2" points="-118.34,298.48 -114.54,291.16 -110.77,298.5 		"/>
		<path class="st2" d="M-114.54,292.25l2.95,5.74l-5.92-0.01L-114.54,292.25 M-114.53,290.07l-4.62,8.9l9.2,0.02L-114.53,290.07
			L-114.53,290.07z"/>
	</g>
	<g>
		<polygon class="st3" points="-40.58,309.77 -22.69,298.79 -23.14,319.78 		"/>
		<path class="st3" d="M-23.21,299.7l-0.41,19.23l-15.97-9.16L-23.21,299.7 M-22.17,297.89l-19.39,11.9l18.9,10.84L-22.17,297.89
			L-22.17,297.89z"/>
	</g>
	<g>
		<polygon class="st3" points="-42.66,331.61 -30.29,328.37 -33.46,341.53 		"/>
		<path class="st3" d="M-30.97,329.07l-2.75,11.44l-8-8.63L-30.97,329.07 M-29.61,327.68l-13.99,3.66l10.41,11.22L-29.61,327.68
			L-29.61,327.68z"/>
	</g>
	<g>
		<polygon class="st3" points="-86.28,303.25 -68.42,286.83 -64.61,308.91 		"/>
		<path class="st3" d="M-68.76,287.82l3.52,20.4L-85.27,303L-68.76,287.82 M-68.08,285.84l-19.21,17.66l23.31,6.09L-68.08,285.84
			L-68.08,285.84z"/>
	</g>
	<g>
		<polygon class="st1" points="-19.36,331.33 -7.88,328.12 -11.82,339.38 		"/>
		<path class="st1" d="M-8.66,328.86l-3.36,9.57l-6.41-6.85L-8.66,328.86 M-7.09,327.39l-13.21,3.68l8.67,9.26L-7.09,327.39
			L-7.09,327.39z"/>
	</g>
</g>
<g id="Grass_Pattern_13_">
	<g>
		<polygon class="st1" points="39.15,389.31 75.99,365.6 74.32,409.44 		"/>
		<path class="st1" d="M75.46,366.54l-1.6,42.05l-33.74-19.31L75.46,366.54 M76.53,364.67l-38.34,24.67l36.6,20.95L76.53,364.67
			L76.53,364.67z"/>
	</g>
	<g>
		<polygon class="st1" points="24.93,355.17 48.75,356.23 33.47,374.58 		"/>
		<path class="st1" d="M25.71,355.71l22.01,0.98l-14.12,16.95L25.71,355.71 M24.15,354.63l9.2,20.88l16.44-19.74L24.15,354.63
			L24.15,354.63z"/>
	</g>
	<g>
		<polygon class="st1" points="88.11,396 107.91,398.76 94.87,413.94 		"/>
		<path class="st1" d="M88.88,396.61l18.06,2.52l-11.89,13.85L88.88,396.61 M87.35,395.38l7.36,19.53l14.18-16.52L87.35,395.38
			L87.35,395.38z"/>
	</g>
	<g>
		<polygon class="st2" points="62.96,422.11 90.24,425.47 71.98,446.05 		"/>
		<path class="st2" d="M63.72,422.71l25.51,3.14L72.15,445.1L63.72,422.71 M62.2,421.52L71.8,447l19.44-21.91L62.2,421.52
			L62.2,421.52z"/>
	</g>
	<g>
		<polygon class="st2" points="108.24,428.42 117.17,423.15 117.72,434.31 		"/>
		<path class="st2" d="M116.71,424l0.46,9.38l-7.96-4.95L116.71,424 M117.63,422.3l-10.35,6.11l10.99,6.83L117.63,422.3
			L117.63,422.3z"/>
	</g>
	<g>
		<polygon class="st1" points="118.67,398.42 144.17,391.3 135.41,416.33 		"/>
		<path class="st1" d="M143.38,392.04l-8.17,23.34l-15.61-16.7L143.38,392.04 M144.95,390.56l-27.21,7.6l17.86,19.11L144.95,390.56
			L144.95,390.56z"/>
	</g>
	<g>
		<polygon class="st2" points="143.36,358.33 148.28,349.35 153.16,358.36 		"/>
		<path class="st2" d="M148.28,350.4l4.04,7.46l-8.11-0.02L148.28,350.4 M148.29,348.31l-5.77,10.52l11.48,0.03L148.29,348.31
			L148.29,348.31z"/>
	</g>
	<g>
		<polygon class="st2" points="19.84,344.93 23.44,337.99 27,344.95 		"/>
		<path class="st2" d="M23.44,339.08l2.75,5.36l-5.52-0.01L23.44,339.08 M23.44,336.9l-4.42,8.53l8.8,0.02L23.44,336.9L23.44,336.9z
			"/>
	</g>
	<g>
		<polygon class="st3" points="94.2,355.77 111.23,345.29 110.8,365.32 		"/>
		<path class="st3" d="M110.71,346.19l-0.39,18.27l-15.15-8.71L110.71,346.19 M111.75,344.38l-18.54,11.4l18.07,10.39L111.75,344.38
			L111.75,344.38z"/>
	</g>
	<g>
		<polygon class="st3" points="92.2,376.7 103.96,373.62 100.95,386.15 		"/>
		<path class="st3" d="M103.28,374.31l-2.6,10.81l-7.55-8.15L103.28,374.31 M104.64,372.92l-13.37,3.51l9.95,10.75L104.64,372.92
			L104.64,372.92z"/>
	</g>
	<g>
		<polygon class="st3" points="50.5,349.51 67.52,333.83 71.15,354.91 		"/>
		<path class="st3" d="M67.18,334.82l3.34,19.4l-19.01-4.97L67.18,334.82 M67.86,332.84l-18.37,16.91l22.29,5.83L67.86,332.84
			L67.86,332.84z"/>
	</g>
	<g>
		<polygon class="st1" points="114.47,376.43 125.38,373.38 121.64,384.09 		"/>
		<path class="st1" d="M124.6,374.12l-3.16,9.03l-6.04-6.46L124.6,374.12 M126.17,372.64l-12.63,3.53l8.29,8.87L126.17,372.64
			L126.17,372.64z"/>
	</g>
</g>
<g id="Grass_Pattern_6_">
	<g>
		<polygon class="st1" points="268.04,352.79 306.63,328 304.88,373.83 		"/>
		<path class="st1" d="M306.1,328.94l-1.68,44.06L269,352.76L306.1,328.94 M307.17,327.06l-40.1,25.75l38.28,21.87L307.17,327.06
			L307.17,327.06z"/>
	</g>
	<g>
		<polygon class="st1" points="253.16,317.12 278.16,318.23 262.13,337.45 		"/>
		<path class="st1" d="M253.95,317.66l23.19,1.03l-14.87,17.82L253.95,317.66 M252.38,316.59l9.62,21.8l17.19-20.61L252.38,316.59
			L252.38,316.59z"/>
	</g>
	<g>
		<polygon class="st1" points="319.25,359.73 340.04,362.63 326.35,378.54 		"/>
		<path class="st1" d="M320.01,360.35l19.05,2.65l-12.54,14.58L320.01,360.35 M318.48,359.12l7.7,20.38l14.84-17.25L318.48,359.12
			L318.48,359.12z"/>
	</g>
	<g>
		<polygon class="st2" points="292.94,387 321.55,390.51 302.4,412.05 		"/>
		<path class="st2" d="M293.7,387.6l26.84,3.29l-17.97,20.21L293.7,387.6 M292.18,386.4l10.04,26.6l20.33-22.87L292.18,386.4
			L292.18,386.4z"/>
	</g>
	<g>
		<polygon class="st2" points="340.3,393.61 349.7,388.07 350.28,399.8 		"/>
		<path class="st2" d="M349.24,388.92l0.49,9.95l-8.47-5.25L349.24,388.92 M350.16,387.22l-10.82,6.38l11.49,7.13L350.16,387.22
			L350.16,387.22z"/>
	</g>
	<g>
		<polygon class="st1" points="351.21,362.28 377.95,354.83 368.76,381.03 		"/>
		<path class="st1" d="M377.16,355.57l-8.6,24.52l-16.43-17.54L377.16,355.57 M378.74,354.09l-28.46,7.93l18.68,19.95L378.74,354.09
			L378.74,354.09z"/>
	</g>
	<g>
		<polygon class="st2" points="377.04,320.47 382.22,311.03 387.36,320.5 		"/>
		<path class="st2" d="M382.22,312.07l4.3,7.92l-8.64-0.02L382.22,312.07 M382.22,309.99l-6.03,10.99L388.2,321L382.22,309.99
			L382.22,309.99z"/>
	</g>
	<g>
		<polygon class="st2" points="247.84,306.48 251.64,299.16 255.41,306.5 		"/>
		<path class="st2" d="M251.64,300.25l2.95,5.74l-5.92-0.01L251.64,300.25 M251.65,298.07l-4.62,8.9l9.2,0.02L251.65,298.07
			L251.65,298.07z"/>
	</g>
	<g>
		<polygon class="st3" points="325.61,317.77 343.49,306.79 343.04,327.78 		"/>
		<path class="st3" d="M342.97,307.7l-0.41,19.23l-15.97-9.16L342.97,307.7 M344.01,305.89l-19.39,11.9l18.9,10.84L344.01,305.89
			L344.01,305.89z"/>
	</g>
	<g>
		<polygon class="st3" points="323.52,339.61 335.89,336.37 332.73,349.53 		"/>
		<path class="st3" d="M335.21,337.07l-2.75,11.44l-8-8.63L335.21,337.07 M336.57,335.68l-13.99,3.66l10.41,11.22L336.57,335.68
			L336.57,335.68z"/>
	</g>
	<g>
		<polygon class="st3" points="279.9,311.25 297.76,294.83 301.57,316.91 		"/>
		<path class="st3" d="M297.42,295.82l3.52,20.4L280.91,311L297.42,295.82 M298.1,293.84l-19.21,17.66l23.31,6.09L298.1,293.84
			L298.1,293.84z"/>
	</g>
	<g>
		<polygon class="st1" points="346.82,339.33 358.3,336.12 354.36,347.38 		"/>
		<path class="st1" d="M357.52,336.86l-3.36,9.57l-6.41-6.85L357.52,336.86 M359.09,335.39l-13.21,3.68l8.67,9.26L359.09,335.39
			L359.09,335.39z"/>
	</g>
</g>
</svg>
